<svg aria-hidden="true" style="position: absolute; width: 0; height: 0; overflow: hidden;" version="1.1" xmlns="http://www.w3.org/2000/svg" xmlns:xlink="http://www.w3.org/1999/xlink">
<defs>
<symbol id="icon-angle-down" viewBox="0 0 32 32">
<path d="M16 22.893c-0.004 0-0.008 0-0.012 0-1.838 0-3.502-0.744-4.708-1.947l-10.893-10.893c-0.242-0.242-0.392-0.577-0.392-0.947 0-0.739 0.599-1.339 1.339-1.339 0.37 0 0.704 0.15 0.947 0.392l10.893 10.893c0.724 0.723 1.723 1.17 2.827 1.17s2.103-0.447 2.827-1.17l10.893-10.893c0.242-0.242 0.577-0.392 0.947-0.392 0.739 0 1.339 0.599 1.339 1.339 0 0.37-0.15 0.704-0.392 0.947l-10.893 10.893c-1.206 1.203-2.87 1.947-4.708 1.947-0.004 0-0.008 0-0.013 0h0.001z"></path>
</symbol>
<symbol id="icon-users-alt" viewBox="0 0 32 32">
<path d="M16 21.333c-2.946 0-5.333-2.388-5.333-5.333s2.388-5.333 5.333-5.333c2.946 0 5.333 2.388 5.333 5.333v0c0 2.946-2.388 5.333-5.333 5.333v0zM16 13.333c-1.473 0-2.667 1.194-2.667 2.667s1.194 2.667 2.667 2.667c1.473 0 2.667-1.194 2.667-2.667v0c0-1.473-1.194-2.667-2.667-2.667v0zM24 30.667c0-4.418-3.582-8-8-8s-8 3.582-8 8v0c0 0.736 0.597 1.333 1.333 1.333s1.333-0.597 1.333-1.333v0c0-2.946 2.388-5.333 5.333-5.333s5.333 2.388 5.333 5.333v0c0 0.736 0.597 1.333 1.333 1.333s1.333-0.597 1.333-1.333v0zM24 10.667c-2.946 0-5.333-2.388-5.333-5.333s2.388-5.333 5.333-5.333c2.946 0 5.333 2.388 5.333 5.333v0c0 2.946-2.388 5.333-5.333 5.333v0zM24 2.667c-1.473 0-2.667 1.194-2.667 2.667s1.194 2.667 2.667 2.667c1.473 0 2.667-1.194 2.667-2.667v0c0-1.473-1.194-2.667-2.667-2.667v0zM32 20c-0.005-4.416-3.584-7.995-8-8h-0c-0.736 0-1.333 0.597-1.333 1.333s0.597 1.333 1.333 1.333v0c2.946 0 5.333 2.388 5.333 5.333v0c0 0.736 0.597 1.333 1.333 1.333s1.333-0.597 1.333-1.333v0zM8 10.667c-2.946 0-5.333-2.388-5.333-5.333s2.388-5.333 5.333-5.333c2.946 0 5.333 2.388 5.333 5.333v0c0 2.946-2.388 5.333-5.333 5.333v0zM8 2.667c-1.473 0-2.667 1.194-2.667 2.667s1.194 2.667 2.667 2.667c1.473 0 2.667-1.194 2.667-2.667v0c0-1.473-1.194-2.667-2.667-2.667v0zM2.667 20c0-2.946 2.388-5.333 5.333-5.333v0c0.736 0 1.333-0.597 1.333-1.333s-0.597-1.333-1.333-1.333v0c-4.416 0.005-7.995 3.584-8 8v0c0 0.736 0.597 1.333 1.333 1.333s1.333-0.597 1.333-1.333v0z"></path>
</symbol>
<symbol id="icon-paper-plane" viewBox="0 0 32 32">
<path d="M7.361 26.533h7.096l4.692 4.687c0.492 0.494 1.172 0.8 1.924 0.8 0 0 0 0 0 0v0c0.248-0 0.488-0.033 0.717-0.094l-0.020 0.004c0.94-0.243 1.67-0.956 1.934-1.866l0.005-0.019 8.276-28.145z"></path>
<path d="M5.449 24.667l24.647-24.651-28.125 8.295c-1.154 0.336-1.984 1.384-1.984 2.627 0 0.755 0.307 1.439 0.802 1.933l4.66 4.656z"></path>
</symbol>
<symbol id="icon-arrow-small-left" viewBox="0 0 32 32">
<path d="M25.333 14.667h-13.333l4.387-4.387c0.244-0.242 0.394-0.577 0.394-0.947s-0.151-0.705-0.394-0.947l-0-0c-0.241-0.24-0.573-0.388-0.94-0.388s-0.699 0.148-0.94 0.388l0-0-5.72 5.733c-0.483 0.481-0.783 1.145-0.787 1.879v0.001c0.007 0.73 0.306 1.389 0.787 1.867l0 0 5.72 5.733c0.241 0.239 0.573 0.387 0.94 0.387 0.737 0 1.334-0.597 1.334-1.334 0-0.37-0.151-0.705-0.394-0.947l-0-0-4.387-4.373h13.333c0.736 0 1.333-0.597 1.333-1.333s-0.597-1.333-1.333-1.333v0z"></path>
</symbol>
<symbol id="icon-plus" viewBox="0 0 32 32">
<path d="M30 14h-12v-12c0-1.105-0.895-2-2-2s-2 0.895-2 2v12h-12c-1.105 0-2 0.895-2 2s0.895 2 2 2h12v12c0 1.105 0.895 2 2 2s2-0.895 2-2v-12h12c1.105 0 2-0.895 2-2s-0.895-2-2-2z"></path>
</symbol>
<symbol id="icon-check" viewBox="0 0 32 32">
<path d="M0.411 19.92l6.105 6.105c1.717 1.716 4.5 1.716 6.217 0l18.855-18.855c0.562-0.582 0.546-1.51-0.036-2.072-0.568-0.549-1.468-0.549-2.036 0l-18.855 18.855c-0.572 0.572-1.5 0.572-2.072 0l-6.105-6.105c-0.582-0.562-1.51-0.546-2.072 0.036-0.549 0.568-0.549 1.468-0 2.036v0z"></path>
</symbol>
<symbol id="icon-menu-burger" viewBox="0 0 32 32">
<path d="M1.333 14.667h29.333c0.736 0 1.333 0.597 1.333 1.333s-0.597 1.333-1.333 1.333h-29.333c-0.736 0-1.333-0.597-1.333-1.333s0.597-1.333 1.333-1.333z"></path>
<path d="M1.333 5.333h29.333c0.736 0 1.333 0.597 1.333 1.333s-0.597 1.333-1.333 1.333h-29.333c-0.736 0-1.333-0.597-1.333-1.333s0.597-1.333 1.333-1.333z"></path>
<path d="M1.333 24h29.333c0.736 0 1.333 0.597 1.333 1.333s-0.597 1.333-1.333 1.333h-29.333c-0.736 0-1.333-0.597-1.333-1.333s0.597-1.333 1.333-1.333z"></path>
</symbol>
<symbol id="icon-cross" viewBox="0 0 32 32">
<path d="M18.828 16l12.586-12.585c0.781-0.781 0.781-2.048 0-2.829s-2.048-0.781-2.829 0v0l-12.585 12.586-12.585-12.586c-0.781-0.781-2.048-0.781-2.829 0s-0.781 2.048 0 2.829l12.586 12.585-12.586 12.585c-0.781 0.781-0.781 2.048 0 2.829s2.048 0.781 2.829 0l12.585-12.586 12.585 12.586c0.781 0.781 2.048 0.781 2.829 0s0.781-2.048 0-2.829l-12.586-12.585z"></path>
</symbol>
</defs>
</svg>
